#!OML:ASF E:\id_vita\Project 1\Capture day 1\Session 1\Male1.ASF
:FULLY-SPECIFIED
:DEGREES
1086
root -11.7783 13.9669 0.254835 -418.749 -82.2036 458.207
lowerback 28.2948 1.34289 -7.01147
upperback 10.8889 -1.08625 -1.12309
thorax -3.28776 -1.01033 3.12672
lowerneck -14.3865 1.50353 4.20133
upperneck 15.9843 0.651376 1.8543
head 7.29954 0.697101 -0.0210233
rclavicle -4.35338e-014 -2.62396e-014
rhumerus 59.8934 20.0656 -57.8811
rradius 25.5454
rwrist 28.1362
rhand -24.2181 29.7877
rfingers 7.12502
rthumb 2.26672 -0.179983
lclavicle -4.35338e-014 -2.62396e-014
lhumerus 63.6777 -10.3979 66.7846
lradius 13.814
lwrist -55.4974
lhand -37.7534 81.36
lfingers 7.12502
lthumb -10.8014 248.938
rfemur -94.1856 -2.97382 19.7599
rtibia 62.671
rfoot -19.5008 -4.81166
rtoes 22.2381
lfemur -21.9979 -1.81048 -37.9466
ltibia 33.9232
lfoot -41.9585 9.07781
ltoes -0.848563
1087
root -11.9092 13.9168 0.259124 -418.536 -82.1297 457.923
lowerback 28.2848 1.31058 -7.09029
upperback 10.9241 -1.14977 -1.15472
thorax -3.23521 -1.04593 3.15469
lowerneck -14.3228 1.4604 3.91097
upperneck 16.4329 0.602515 2.04048
head 7.43272 0.678024 0.0830391
rclavicle 2.92213e-014 1.963e-014
rhumerus 60.1189 20.4464 -56.7481
rradius 26.3303
rwrist 26.9229
rhand -24.2725 29.7857
rfingers 7.12502
rthumb 2.21419 -0.182549
lclavicle 2.92213e-014 1.963e-014
lhumerus 63.8096 -10.5644 65.7491
lradius 14.1267
lwrist -54.304
lhand -38.2127 81.7407
lfingers 7.12502
lthumb -11.2445 248.581
rfemur -94.4912 -2.81647 20.5972
rtibia 61.0586
rfoot -18.0012 -8.94195
rtoes 2.40441
lfemur -20.9601 -1.67961 -37.9795
ltibia 33.117
lfoot -41.6492 9.10746
ltoes -1.79867
1088
root -12.0437 13.8645 0.26061 -418.855 -82.1368 458.014
lowerback 28.396 1.31927 -7.13281
upperback 11.0038 -1.1707 -1.19179
thorax -3.19462 -1.06395 3.14489
lowerneck -14.097 1.46214 4.09953
upperneck 16.7298 0.628113 1.6845
head 7.49232 0.671111 -0.0623142
rclavicle -4.1546e-014 -1.10822e-014
rhumerus 60.3498 20.8193 -55.4605
rradius 27.2076
rwrist 25.6774
rhand -24.3192 29.8582
rfingers 7.12502
rthumb 2.16909 -0.110551
lclavicle -4.1546e-014 -1.10822e-014
lhumerus 64.1076 -10.8145 64.2196
lradius 14.1719
lwrist -53.1705
lhand -39.1675 82.9277
lfingers 7.12502
lthumb -12.1652 247.446
rfemur -94.5612 -2.56728 21.1219
rtibia 59.6521
rfoot -17.1848 -9.67759
rtoes -2.01477
lfemur -19.6822 -1.50408 -37.9386
ltibia 32.2939
lfoot -41.4047 8.79237
ltoes -1.46197
1089
root -12.1806 13.8235 0.265109 -419.132 -82.1838 458.208
lowerback 28.2475 1.30103 -7.1082
upperback 11.0816 -1.18269 -1.26647
thorax -3.04023 -1.07704 3.0477
lowerneck -13.8667 1.44338 3.88246
upperneck 16.9407 0.608924 1.88491
head 7.51922 0.666417 0.0357864
rclavicle -1.66979e-014 -1.42131e-014
rhumerus 60.3059 21.0044 -54.6585
rradius 28.1172
rwrist 24.6953
rhand -24.3733 29.9891
rfingers 7.12502
rthumb 2.11679 0.0198478
lclavicle -1.66979e-014 -1.42131e-014
lhumerus 64.4559 -11.2328 62.2768
lradius 14.3918
lwrist -51.4401
lhand -39.701 82.2906
lfingers 7.12502
lthumb -12.6795 248.114
rfemur -94.7779 -2.32498 21.4245
rtibia 58.3493
rfoot -16.1084 -8.27827
rtoes 4.46788
lfemur -18.5749 -1.40277 -37.8577
ltibia 31.4389
lfoot -41.2771 8.17625
ltoes 0.0174785
1090
root -12.319 13.7944 0.272421 -418.728 -82.1416 457.708
lowerback 28.1328 1.23924 -7.05911
upperback 11.1639 -1.24539 -1.34468
thorax -2.89249 -1.11332 2.9481
lowerneck -13.4859 1.41798 3.5901
upperneck 16.9059 0.56932 2.30493
head 7.43815 0.662055 0.214021
rclavicle -2.42517e-014 -2.96189e-014
rhumerus 59.9925 20.9968 -54.3607
rradius 29.0526
rwrist 24.2604
rhand -24.4274 30.1275
rfingers 7.12502
rthumb 2.06455 0.157767
lclavicle -2.42517e-014 -2.96189e-014
lhumerus 64.6809 -11.6101 60.5293
lradius 14.8799
lwrist -49.7934
lhand -39.5535 81.5066
lfingers 7.12502
lthumb -12.5373 248.89
rfemur -94.9604 -2.2004 21.3418
rtibia 57.3188
rfoot -15.8398 -8.41471
rtoes 7.22884
lfemur -17.449 -1.39933 -37.8274
ltibia 30.5105
lfoot -40.884 8.19193
ltoes -1.26474
1091
root -12.4573 13.7765 0.275544 -417.579 -82.1632 456.499
lowerback 27.9941 1.13764 -6.97206
upperback 11.2464 -1.34203 -1.39082
thorax -2.73072 -1.16535 2.87128
lowerneck -13.1523 1.42806 3.37842
upperneck 16.8664 0.579894 2.61185
head 7.36482 0.676168 0.347168
rclavicle 4.54223e-014 2.80535e-014
rhumerus 59.8371 21.0837 -54.0286
rradius 29.9525
rwrist 23.7457
rhand -24.5168 30.2489
rfingers 7.12502
rthumb 1.97824 0.278293
lclavicle 4.54223e-014 2.80535e-014
lhumerus 64.8875 -11.8818 58.8061
lradius 15.3036
lwrist -48.3024
lhand -39.3522 81.5583
lfingers 7.12502
lthumb -12.3432 248.826
rfemur -95.2514 -2.03636 21.073
rtibia 56.4242
rfoot -15.3894 -7.78406
rtoes 8.8837
lfemur -16.4007 -1.37131 -37.6692
ltibia 29.5592
lfoot -39.9803 8.83628
ltoes -5.34921
1092
root -12.589 13.7393 0.278882 -415.487 -82.3049 454.32
lowerback 27.8847 0.975558 -6.70488
upperback 11.3185 -1.46752 -1.3884
thorax -2.59775 -1.2253 2.75415
lowerneck -12.9798 1.48971 3.22075
upperneck 17.1333 0.659898 2.74111
head 7.42064 0.715796 0.423229
rclavicle -4.65156e-014 -7.33018e-015
rhumerus 59.8997 21.37 -53.3283
rradius 30.7865
rwrist 22.8683
rhand -24.4618 30.0335
rfingers 7.12502
rthumb 2.03133 0.0634635
lclavicle -4.65156e-014 -7.33018e-015
lhumerus 65.0689 -12.1701 57.014
lradius 15.6615
lwrist -46.5937
lhand -39.4259 81.518
lfingers 7.12502
lthumb -12.4143 248.871
rfemur -95.3271 -1.87678 20.8369
rtibia 55.6814
rfoot -15.2081 -6.89554
rtoes 13.5743
lfemur -15.3847 -1.37143 -37.3314
ltibia 28.7266
lfoot -39.7663 8.10956
ltoes -4.18983
1093
root -12.7241 13.6971 0.287675 -414.2 -82.3505 452.869
lowerback 27.8298 0.831554 -6.46806
upperback 11.3813 -1.58842 -1.43007
thorax -2.50222 -1.28169 2.60562
lowerneck -12.5606 1.48585 3.27999
upperneck 17.1406 0.684224 2.59493
head 7.34949 0.713088 0.36476
rclavicle -1.54058e-014 -1.71079e-014
rhumerus 59.9745 21.6438 -52.6182
rradius 31.3932
rwrist 22.2417
rhand -24.4725 29.9128
rfingers 7.12502
rthumb 2.02103 -0.057342
lclavicle -1.54058e-014 -1.71079e-014
lhumerus 65.1405 -12.4915 55.2686
lradius 16.1785
lwrist -44.8662
lhand -39.4301 81.1921
lfingers 7.12502
lthumb -12.4183 249.197
rfemur -95.3749 -1.75381 20.4837
rtibia 55.0442
rfoot -13.8774 -6.60223
rtoes 12.7495
lfemur -14.2451 -1.45515 -37.169
ltibia 27.9107
lfoot -40.1404 8.86795
ltoes -5.82325
1094
root -12.8608 13.6337 0.293192 -413.87 -82.2408 452.447
lowerback 27.6509 0.775827 -6.4023
upperback 11.4434 -1.63435 -1.53152
thorax -2.35189 -1.3063 2.4644
lowerneck -12.2046 1.43788 3.21353
upperneck 17.2332 0.625461 2.66035
head 7.31608 0.68319 0.388722
rclavicle 2.93207e-015 1.02126e-014
rhumerus 59.8981 21.7087 -52.0461
rradius 31.9053
rwrist 21.872
rhand -24.535 29.8587
rfingers 7.12502
rthumb 1.96062 -0.112073
lclavicle 2.93207e-015 1.02126e-014
lhumerus 65.1864 -12.7516 54.127
lradius 16.8007
lwrist -43.829
lhand -39.3197 80.8841
lfingers 7.12502
lthumb -12.3119 249.498
rfemur -95.4775 -1.572 20.0217
rtibia 54.5373
rfoot -13.6845 -6.75277
rtoes 16.5272
lfemur -13.1581 -1.52623 -37.2211
ltibia 27.1613
lfoot -39.285 7.99448
ltoes -4.4006
1095
root -12.9987 13.5739 0.293931 -414.036 -82.1739 452.509
lowerback 27.5172 0.811168 -6.4929
upperback 11.4843 -1.60343 -1.55384
thorax -2.24336 -1.29877 2.47858
lowerneck -11.8076 1.41735 3.17701
upperneck 17.304 0.629685 2.57665
head 7.26857 0.671568 0.365115
rclavicle 7.45443e-016 2.13694e-015
rhumerus 59.7498 21.7451 -51.5315
rradius 32.5369
rwrist 21.4987
rhand -24.5902 29.868
rfingers 7.12502
rthumb 1.90739 -0.103199
lclavicle 7.45443e-016 2.13694e-015
lhumerus 65.2419 -12.9627 53.3483
lradius 17.3382
lwrist -42.9448
lhand -39.4115 81.2171
lfingers 7.12502
lthumb -12.4004 249.171
rfemur -95.5583 -1.25321 19.1467
rtibia 54.1324
rfoot -12.2741 -7.06655
rtoes 16.6852
lfemur -12.0147 -1.45769 -37.2461
ltibia 26.373
lfoot -38.7422 8.13744
ltoes -3.71353
1096
root -13.1408 13.514 0.294834 -413.416 -82.4004 451.552
lowerback 27.695 0.801253 -6.43806
upperback 11.4975 -1.6129 -1.4206
thorax -2.30795 -1.30591 2.59988
lowerneck -10.9842 1.40904 3.05943
upperneck 16.7628 0.736625 2.373
head 6.94657 0.683831 0.319702
rclavicle 5.05907e-014 3.22404e-014
rhumerus 59.75 22.0635 -50.9912
rradius 33.0873
rwrist 21.1192
rhand -24.5145 29.8291
rfingers 7.12502
rthumb 1.98048 -0.141419
lclavicle 5.05907e-014 3.22404e-014
lhumerus 65.1317 -13.1481 52.0993
lradius 17.9205
lwrist -41.4683
lhand -39.581 81.9762
lfingers 7.12502
lthumb -12.5638 248.422
rfemur -95.2911 -0.861355 18.6326
rtibia 53.8886
rfoot -11.1301 -7.55983
rtoes 15.3899
lfemur -10.555 -1.37031 -36.9388
ltibia 25.5078
lfoot -38.6519 7.72837
ltoes -1.52877
1097
root -13.2837 13.4572 0.300279 -410.728 -82.7398 448.683
lowerback 27.6202 0.634746 -6.06495
upperback 11.5025 -1.71144 -1.28887
thorax -2.27015 -1.34597 2.55781
lowerneck -10.5069 1.50994 2.707
upperneck 16.6375 0.895395 2.68786
head 6.81842 0.756128 0.488704
rclavicle 3.68311e-014 4.77409e-014
rhumerus 59.7671 22.4438 -50.505
rradius 33.6137
rwrist 20.7612
rhand -24.4515 29.7437
rfingers 7.12502
rthumb 2.04129 -0.22632
lclavicle 3.68311e-014 4.77409e-014
lhumerus 64.9183 -13.2447 50.938
lradius 18.4999
lwrist -40.3227
lhand -39.6988 82.1358
lfingers 7.12502
lthumb -12.6774 248.269
rfemur -95.1352 -0.634767 18.4036
rtibia 53.766
rfoot -10.1338 -8.04457
rtoes 15.9918
lfemur -9.33648 -1.54533 -36.3833
ltibia 24.6666
lfoot -38.9924 6.74202
ltoes -0.523523
1098
root -13.431 13.4099 0.301736 -409.226 -82.8829 446.874
lowerback 27.6973 0.527065 -5.91346
upperback 11.5529 -1.82075 -1.31382
thorax -2.24801 -1.3978 2.47578
lowerneck -10.4061 1.68421 2.46171
upperneck 16.9514 1.05079 3.22926
head 6.89746 0.857903 0.717948
rclavicle 9.83984e-015 7.81472e-015
rhumerus 59.6714 22.7056 -50.2886
rradius 34.272
rwrist 20.3124
rhand -24.4877 29.7828
rfingers 7.12502
rthumb 2.00637 -0.187555
lclavicle 9.83984e-015 7.81472e-015
lhumerus 64.6927 -13.2199 50.2038
lradius 18.9733
lwrist -39.7613
lhand -40.0171 81.1806
lfingers 7.12502
lthumb -12.9843 249.243
rfemur -94.9509 -0.442045 18.3562
rtibia 53.9374
rfoot -6.45721 -8.7586
rtoes 3.94678
lfemur -8.06637 -1.73986 -36.0371
ltibia 23.9967
lfoot -37.9229 6.73369
ltoes -3.12223
